<svg width="64" height="64" viewBox="0 0 64 64" fill="none" xmlns="http://www.w3.org/2000/svg">
<g clip-path="url(#clip0_18473_3558)">
<path d="M32 64.0002C49.6731 64.0002 64 49.6732 64 32.0001C64 14.3269 49.6731 0 32 0C14.3269 0 0 14.3269 0 32.0001C0 49.6732 14.3269 64.0002 32 64.0002Z" fill="#627EEA"/>
<path d="M32.9961 8V25.7396L47.9896 32.4399L32.9961 8Z" fill="#C1CCF7"/>
<path d="M32.9961 8L18 32.4399L32.9961 25.7396V8Z" fill="white"/>
<path d="M32.9961 43.9359V55.9901L48.0001 35.2314L32.9961 43.9359Z" fill="#C1CCF7"/>
<path d="M32.9961 55.9901V43.9342L18 35.2314L32.9961 55.9901Z" fill="white"/>
<path d="M32.9961 41.1462L47.9896 32.44L32.9961 25.7441V41.1462Z" fill="#8098EE"/>
<path d="M18 32.44L32.9961 41.1462V25.7441L18 32.44Z" fill="#C1CCF7"/>
</g>
<defs>
<clipPath id="clip0_18473_3558">
<rect width="64" height="64.0002" fill="white"/>
</clipPath>
</defs>
</svg>
