<svg width="64" height="64" viewBox="0 0 64 64" fill="none" xmlns="http://www.w3.org/2000/svg">
<g clip-path="url(#clip0_18473_3582)">
<path d="M32 64.0002C49.6731 64.0002 64 49.6732 64 32.0001C64 14.3269 49.6731 0 32 0C14.3269 0 0 14.3269 0 32.0001C0 49.6732 14.3269 64.0002 32 64.0002Z" fill="black"/>
<path d="M41.9966 26.4483C44.823 26.4483 47.1143 24.157 47.1143 21.3306C47.1143 18.5042 44.823 16.2129 41.9966 16.2129C39.1702 16.2129 36.8789 18.5042 36.8789 21.3306C36.8789 24.157 39.1702 26.4483 41.9966 26.4483Z" fill="white"/>
<path d="M22.6199 42.6332V21.375H16.9336V47.7946H41.9534V42.6332H22.6199Z" fill="white"/>
</g>
<defs>
<clipPath id="clip0_18473_3582">
<rect width="64" height="64.0002" fill="white"/>
</clipPath>
</defs>
</svg>
