<svg width="64" height="64" viewBox="0 0 64 64" fill="none" xmlns="http://www.w3.org/2000/svg">
<g clip-path="url(#clip0_18473_3588)">
<path d="M32 64.0002C49.6731 64.0002 64 49.6732 64 32.0001C64 14.3269 49.6731 0 32 0C14.3269 0 0 14.3269 0 32.0001C0 49.6732 14.3269 64.0002 32 64.0002Z" fill="#8247E5"/>
<path d="M42.2049 25.2145C41.4797 24.7998 40.5472 24.7998 39.7187 25.2145L33.9169 28.6333L29.9802 30.809L24.2816 34.2278C23.5564 34.6424 22.6239 34.6424 21.7954 34.2278L17.3408 31.5342C16.6156 31.1195 16.0977 30.2911 16.0977 29.3585V24.1787C16.0977 23.3502 16.5124 22.5209 17.3408 22.003L21.7954 19.4127C22.5206 18.998 23.4532 18.998 24.2816 19.4127L28.7362 22.1062C29.4614 22.5209 29.9793 23.3494 29.9793 24.2819V27.7007L33.916 25.4218V21.8989C33.916 21.0704 33.5014 20.2411 32.6729 19.7232L24.3849 14.854C23.6596 14.4393 22.7271 14.4393 21.8986 14.854L13.4033 19.8273C12.5748 20.242 12.1602 21.0704 12.1602 21.8998V31.6383C12.1602 32.4667 12.5748 33.2961 13.4033 33.814L21.7954 38.6832C22.5206 39.0979 23.4532 39.0979 24.2816 38.6832L29.9802 35.3676L33.9169 33.0887L39.6155 29.7732C40.3407 29.3585 41.2733 29.3585 42.1017 29.7732L46.5563 32.3635C47.2815 32.7782 47.7994 33.6066 47.7994 34.5392V39.719C47.7994 40.5475 47.3847 41.3768 46.5563 41.8947L42.2049 44.485C41.4797 44.8997 40.5472 44.8997 39.7187 44.485L35.2641 41.8947C34.5389 41.48 34.021 40.6516 34.021 39.719V36.4034L30.0843 38.6823V42.1011C30.0843 42.9296 30.499 43.7589 31.3274 44.2768L39.7196 49.1461C40.4448 49.5608 41.3774 49.5608 42.2058 49.1461L50.5979 44.2768C51.3232 43.8622 51.8411 43.0337 51.8411 42.1011V32.2585C51.8411 31.4301 51.4264 30.6007 50.5979 30.0829L42.2058 25.2136L42.2049 25.2145Z" fill="white"/>
</g>
<defs>
<clipPath id="clip0_18473_3588">
<rect width="64" height="64.0002" fill="white"/>
</clipPath>
</defs>
</svg>
