<svg width="64" height="64" viewBox="0 0 64 64" fill="none" xmlns="http://www.w3.org/2000/svg">
<g clip-path="url(#clip0_18473_3538)">
<path d="M51.7383 10.9785H12.2227V46.8934H51.7383V10.9785Z" fill="white"/>
<path fill-rule="evenodd" clip-rule="evenodd" d="M63.977 32.0004C63.977 49.6502 49.6598 63.9579 31.9982 63.9579C14.3369 63.9579 0.0195312 49.6502 0.0195312 32.0004C0.0195312 14.3508 14.3369 0.0429688 31.9982 0.0429688C49.6598 0.0429688 63.977 14.3508 63.977 32.0004ZM22.9364 44.7179H16.7302C15.4261 44.7179 14.7819 44.7179 14.3892 44.4668C13.9649 44.1919 13.7057 43.7366 13.6743 43.234C13.6507 42.7711 13.9728 42.2056 14.617 41.0751L29.9408 14.0828C30.5928 12.9365 30.9228 12.3634 31.3391 12.1515C31.7869 11.9238 32.3211 11.9238 32.7689 12.1515C33.1853 12.3634 33.5153 12.9365 34.1673 14.0828L37.3175 19.5782L37.3336 19.6063C38.0378 20.8359 38.395 21.4595 38.5509 22.114C38.7237 22.8284 38.7237 23.5821 38.5509 24.2965C38.3938 24.9559 38.0403 25.584 37.3254 26.8323L29.2761 41.0516L29.2553 41.088C28.5464 42.3278 28.1872 42.9562 27.6893 43.4302C27.1472 43.9485 26.4951 44.3251 25.7802 44.5374C25.1282 44.7179 24.3976 44.7179 22.9364 44.7179ZM38.609 44.7179H47.5017C48.8137 44.7179 49.4737 44.7179 49.8667 44.4591C50.2908 44.1842 50.5578 43.7208 50.5817 43.2187C50.6042 42.7706 50.2891 42.2272 49.6717 41.1624C49.6504 41.1262 49.6291 41.0893 49.6074 41.0517L45.1529 33.4366L45.1023 33.3508C44.4763 32.2931 44.1604 31.7589 43.7546 31.5524C43.307 31.3247 42.7803 31.3247 42.3327 31.5524C41.9242 31.7644 41.5943 32.3218 40.9422 33.4444L36.5036 41.0596L36.4884 41.0858C35.8387 42.2067 35.5139 42.7668 35.5374 43.2264C35.5688 43.7289 35.828 44.1919 36.2522 44.4668C36.6372 44.7179 37.2971 44.7179 38.609 44.7179Z" fill="#E84142"/>
</g>
<defs>
<clipPath id="clip0_18473_3538">
<rect width="64" height="64" fill="white"/>
</clipPath>
</defs>
</svg>
