<svg width="64" height="64" viewBox="0 0 64 64" fill="none" xmlns="http://www.w3.org/2000/svg">
<g clip-path="url(#clip0_18473_3568)">
<path fill-rule="evenodd" clip-rule="evenodd" d="M32 0C49.6744 0 64 14.3256 64 32C64 49.6744 49.6744 64 32 64C14.3256 64 0 49.6744 0 32C0 14.3256 14.3256 0 32 0Z" fill="#F0B90B"/>
<path d="M17.5856 32.0003L17.6087 40.4619L24.7984 44.6927V49.6465L13.401 42.9619V29.526L17.5856 32.0003ZM17.5856 23.5388V28.4696L13.3984 25.9927V21.0619L17.5856 18.585L21.7933 21.0619L17.5856 23.5388ZM27.801 21.0619L31.9882 18.585L36.1959 21.0619L31.9882 23.5388L27.801 21.0619Z" fill="white"/>
<path d="M20.6133 38.708V33.7542L24.8005 36.2311V41.1619L20.6133 38.708ZM27.803 46.467L31.9902 48.9439L36.1979 46.467V51.3978L31.9902 53.8747L27.803 51.3978V46.467ZM42.203 21.0619L46.3902 18.585L50.5979 21.0619V25.9927L46.3902 28.4696V23.5388L42.203 21.0619ZM46.3902 40.4619L46.4133 32.0003L50.6005 29.5234V42.9593L39.203 49.6439V44.6901L46.3902 40.4619Z" fill="white"/>
<path d="M43.3864 38.7078L39.1992 41.1616V36.2308L43.3864 33.7539V38.7078Z" fill="white"/>
<path d="M43.3876 25.2926L43.4107 30.2465L36.2005 34.4773V42.9593L32.0133 45.4132L27.8261 42.9593V34.4773L20.6158 30.2465V25.2926L24.821 22.8157L31.9876 27.067L39.1979 22.8157L43.4056 25.2926H43.3876ZM20.6133 16.8337L31.9902 10.126L43.3876 16.8337L39.2005 19.3106L31.9902 15.0593L24.8005 19.3106L20.6133 16.8337Z" fill="white"/>
</g>
<defs>
<clipPath id="clip0_18473_3568">
<rect width="64" height="64" fill="white"/>
</clipPath>
</defs>
</svg>
