<svg width="110" height="110" viewBox="0 0 110 110" fill="none" xmlns="http://www.w3.org/2000/svg">
<circle cx="55" cy="55" r="55" fill="#0F1218"/>
<path d="M58.0492 47.71C58.2325 46.4075 58.3588 46.2741 59.6293 45.8559C60.1043 45.6638 60.4745 45.2278 60.8659 44.8524C61.4406 44.3684 61.7307 43.6762 61.7093 42.9271C61.7734 40.2492 63.6488 37.8755 66.2057 37.0535C67.6168 36.5784 69.1061 36.4414 70.5474 36.1033C71.2502 35.961 71.9495 35.7118 72.6701 35.6941C73.4477 35.6656 74.1666 36.2403 74.268 37.0126C74.3481 37.5748 74.1114 38.1407 73.9584 38.6763C73.7751 39.3417 73.558 40.0143 73.5314 40.7012C73.5207 41.0072 73.5509 41.3204 73.5794 41.6264C73.736 43.0873 73.51 44.4734 72.7538 45.7243C72.0936 46.8257 71.1025 47.7189 69.9566 48.1994C69.042 48.5979 67.9638 48.7616 66.9442 48.7367C66.4513 48.7172 65.9442 48.7919 65.5527 49.1157C65.1346 49.4752 64.6897 49.8684 64.4371 50.3435C64.0545 51.194 63.8908 51.7136 62.8463 51.8061C62.0189 51.9129 61.3695 52.6282 60.8712 53.2759C60.5492 53.7759 60.6684 54.4378 60.3944 54.9787C60.2111 55.363 59.9246 55.6798 59.6257 55.9858C53.9389 61.5765 48.2645 67.1566 42.5884 72.7509C40.0208 75.452 35.7521 73.653 35.7966 69.9787C35.8197 69.0036 36.3215 68.0641 36.9976 67.3559C40.6578 63.6708 44.4442 60.1068 48.1506 56.4538C50.1364 54.5161 52.1417 52.5712 54.1097 50.6406C54.3944 50.3648 54.6915 50.089 55.0403 49.9004C55.51 49.6282 56.0972 49.6531 56.5439 49.4093C56.8161 49.2705 57.0314 49.0481 57.2396 48.8257C57.5634 48.4663 57.9264 48.1478 58.0403 47.7349L58.0492 47.7065V47.71ZM56.1008 52.2011C55.9157 52.2011 55.7307 52.3203 55.5421 52.4983C50.6595 57.2741 45.7343 62.0303 40.8517 66.8025C40.309 67.3345 39.7681 67.8666 39.229 68.4004C38.7895 68.8417 38.2823 69.315 38.1204 69.9288C37.7841 71.1886 39.1382 72.1762 40.2983 71.589C40.704 71.4021 41.0403 71.0765 41.3553 70.7616C46.7521 65.363 52.2129 60.0338 57.6328 54.6638C58.0901 54.2527 58.0172 53.9467 57.6132 53.5659C57.3855 53.3257 57.1542 53.0552 56.9229 52.7972C56.6524 52.5001 56.4389 52.2225 56.1257 52.2011H56.1008ZM68.0492 46.5481C70.0242 46.2261 71.5741 44.2599 71.4655 42.2617C71.4602 41.5606 71.2271 40.8471 71.2894 40.1994C71.3196 39.6638 71.5758 39.1193 71.6292 38.5997C71.6185 38.0339 70.9139 38.3204 70.5527 38.3524C68.4104 38.7617 65.8374 38.9165 64.5367 40.936C64.0599 41.6175 63.9709 42.3542 63.9317 43.1851C63.9068 43.9289 63.5688 44.5641 63.0189 45.0428C62.4015 45.6549 61.647 46.283 61.1524 46.8168C60.9228 47.0908 61.1453 47.4022 61.3517 47.6228C61.7218 48.0196 62.1132 48.4271 62.4851 48.815C62.704 49.0446 63.0136 49.2812 63.3196 49.073C63.9442 48.5819 64.5403 47.8986 65.1577 47.3293C65.3712 47.1246 65.5919 46.9289 65.8623 46.8079C66.4566 46.5339 67.3428 46.6353 68.0136 46.5517L68.0509 46.5463L68.0492 46.5481ZM59.5189 52.2492C59.6862 52.2421 59.8392 52.1139 59.9638 52.0001C60.268 51.71 60.583 51.4129 60.8801 51.1264C60.9976 51.0072 61.1239 50.8577 61.1221 50.6887C61.1221 50.5179 60.994 50.3595 60.8784 50.2349C60.5545 49.9004 60.2253 49.5623 59.9086 49.2421C59.7894 49.1264 59.6382 49.0018 59.4709 49.0054C59.3019 49.0054 59.1471 49.1317 59.0243 49.2492C58.7147 49.5534 58.3997 49.8666 58.0901 50.178C57.9709 50.3026 57.8446 50.4591 57.8463 50.6317C57.8463 50.8043 57.978 50.9609 58.099 51.0837C58.4157 51.3933 58.7414 51.7047 59.0527 52.0054C59.1773 52.1211 59.3232 52.2456 59.494 52.2527H59.5207L59.5189 52.2492Z" fill="#2B71FF"/>
<path d="M47.7681 70.6886C47.7556 70.258 48.7627 69.3541 49.1933 69.258C49.8748 69.1708 51.2681 69.5676 51.8428 70.0267C52.567 70.8612 52.1542 72.6103 52.2681 73.6975C52.22 74.3577 52.6684 74.7331 53.3197 74.669C54.2805 74.6673 55.2378 74.669 56.1987 74.6708C56.8463 74.726 57.2912 74.3719 57.2378 73.7028C57.3499 72.5605 56.962 71.1566 57.5528 70.1299C57.9033 69.7153 58.494 69.5854 58.9922 69.4182C59.8801 69.1441 60.752 68.831 61.5634 68.3879C62.2645 68.0641 63.0421 67.3363 63.8463 67.6815C64.8018 68.2313 65.494 69.1637 66.2965 69.9004C66.8178 70.5071 67.3694 70.4093 67.825 69.8683C70.5634 66.8043 71.4317 67.7224 68.3125 64.7723C66.583 63.3666 68.0314 62.2082 68.5919 60.6584C69.0331 59.7972 69.099 58.452 69.8356 57.8702C70.7965 57.3524 72.0011 57.6549 73.0385 57.5677C73.8249 57.6157 74.1417 57.1228 74.0919 56.4271C74.058 55.2545 74.1737 54.0641 74.0189 52.8933C73.5705 51.5196 70.0545 53.2207 69.3944 51.5036C69.042 50.7634 69.8588 50.4858 70.4922 50.2207C70.9851 49.9894 71.526 49.9449 72.0616 50.0232C73.3321 50.2438 75.0224 49.6851 75.9477 50.8542C76.7377 51.952 76.2502 54.6388 76.3748 56.0694C76.5438 59.1548 75.8908 60.0161 72.7467 59.8363C71.9459 59.7687 71.2716 60.0588 71.0314 60.8346C70.8036 61.6228 70.1043 62.541 70.3961 63.3541C70.9032 64.1833 71.7716 64.7723 72.3943 65.5071C73.7253 66.8737 73.1061 68.1032 71.8356 69.2064C71.2467 69.7989 70.6524 70.3879 70.0563 70.9751C68.9655 71.984 67.6239 73.8808 65.9976 72.7669C65.0278 72.1512 64.3908 71.105 63.4157 70.5142C63.0776 70.3577 62.6915 70.4413 62.3054 70.605C61.6204 70.9057 60.9157 71.1584 60.2414 71.484C59.2342 71.9715 59.6257 73.2972 59.5421 74.2206C59.7502 77.8772 56.5172 76.8132 54.0581 76.9697C52.4994 76.9608 50.1257 77.2918 50.0279 75.1281C49.882 74.1246 50.1862 72.8932 49.825 71.9662C49.5901 71.5285 48.9816 71.3808 48.4656 71.1655C48.2058 71.0569 47.8766 70.9733 47.7752 70.7046L47.7716 70.6851L47.7681 70.6886Z" fill="#2B71FF"/>
<path d="M60.3196 38.5784C60.3926 38.7812 60.3214 39.0108 60.2342 39.2083C60.0492 39.6051 59.889 40.0837 59.5937 40.2706C59.0474 40.557 58.2947 40.2563 57.8374 39.9058C57.1275 39.1389 57.535 37.3328 57.4264 36.2884C57.4602 35.6122 57.0261 35.2617 56.3606 35.3133C55.4051 35.3133 54.462 35.3062 53.5029 35.3062C53.0652 35.2866 52.551 35.4111 52.5029 35.9183C52.3784 37.0588 52.6168 38.315 52.3624 39.4271C52.1738 40.0624 51.4638 40.2581 50.8908 40.4307C49.8748 40.7261 48.8748 41.0428 47.9336 41.5197C47.3357 41.7901 46.7129 42.235 46.0457 42.2545C44.898 42.0659 44.1684 40.7759 43.3215 40.0837C42.8055 39.5054 42.2788 39.6727 41.8428 40.1727C38.882 43.3951 38.1863 42.3738 41.2894 45.3844C41.9905 46.009 41.9994 46.8043 41.4781 47.5499C40.8126 48.6887 40.3749 49.9164 40.0457 51.1887C39.8962 51.92 39.3001 52.4378 38.5492 52.4413C37.7699 52.4912 36.9976 52.4378 36.2129 52.4734C35.6471 52.4467 35.2325 52.8648 35.2592 53.4342C35.2307 54.5001 35.2503 55.5552 35.2468 56.6175C35.2503 56.952 35.2681 57.3577 35.5492 57.5659C36.9069 58.2189 39.4247 56.9271 39.9745 58.8951C40.1418 59.5303 40.5492 60.3541 40.3535 60.9431C40.1685 61.3719 39.2272 62.3257 38.8304 62.1744C38.4798 61.9983 38.3179 61.0854 38.0831 60.6655C37.914 60.2491 37.4923 60.0481 37.0581 60.0445C33.7023 60.1228 32.8357 59.8168 33.0243 56.2154C33.0243 55.21 33.0243 54.2047 33.0243 53.1993C32.9852 52.1566 33.0813 50.8043 34.2219 50.4022C35.4051 49.8204 37.5973 50.8542 38.1364 49.4004C38.3677 48.8435 38.5777 48.2848 38.809 47.7367C39.1435 47.0837 39.1133 46.4752 38.5759 46.0108C37.5403 44.9093 35.3944 43.4787 36.8411 41.8471C38.0314 40.5214 39.3339 39.3204 40.5866 38.0553C42.7645 35.5926 43.9709 37.477 45.6969 39.1567C46.0777 39.557 46.6062 39.6335 47.0884 39.4129C48.0154 38.9485 49.1489 38.7439 49.9442 38.0677C50.1916 37.783 50.2005 37.34 50.1951 36.8951C50.2182 36.0659 50.1239 35.2047 50.3357 34.3951C50.6453 33.1638 51.9976 32.9485 53.1044 33.0126C54.3321 33.0126 55.5599 33.0126 56.7876 33.0126C59.1097 32.8702 59.9086 33.9378 59.7396 36.1798C59.7538 36.6905 59.6898 37.2296 59.8036 37.735C59.8997 38.0997 60.2111 38.3008 60.3125 38.5553L60.3214 38.5784H60.3196Z" fill="#2B71FF"/>
<path d="M58.4442 43.5161C58.4051 43.783 58.1186 43.9823 57.9317 44.1709C57.5367 44.5214 57.1791 44.9378 56.7111 45.0926C56.4478 45.1851 56.1488 45.1958 55.8392 45.1834C53.3481 45.0321 51.0919 45.5944 49.1257 46.9769C46.3748 48.8826 44.6827 51.9467 44.745 55.2616C44.8571 56.8488 44.4709 57.1264 43.341 58.1513C42.8944 58.5392 42.6951 58.1762 42.6115 57.6798C41.8357 53.726 43.0421 49.4716 45.8944 46.6211C49.4442 43.1229 54.0278 42.2492 58.083 43.2278C58.2307 43.2705 58.4264 43.3382 58.446 43.5001V43.5161H58.4442Z" fill="#2B71FF"/>
<path d="M66.2912 51.8862C66.4495 51.9307 66.5509 52.2705 66.5883 52.4894C66.8837 54.0072 66.9442 55.4965 66.7075 56.9911C65.8641 62.4787 60.8107 66.895 55.2236 67.0534C54.2876 67.0997 53.3357 67.0516 52.4246 66.9039C52.083 66.8345 51.8481 66.7456 51.978 66.4538C52.0617 66.2883 52.2147 66.1353 52.3464 65.9947C52.9442 65.3363 53.5136 64.7474 54.4496 64.7847C59.2253 64.8043 63.7449 61.2901 64.3463 56.3862C64.4513 55.7082 64.4477 55.0267 64.4157 54.3452C64.4033 54.0428 64.4122 53.7474 64.5029 53.4894C64.6666 52.9876 65.1595 52.6477 65.5794 52.2563C65.7751 52.0961 66.0065 51.8292 66.268 51.8791L66.2858 51.8862H66.2912Z" fill="#2B71FF"/>
</svg>
