<svg width="110" height="110" viewBox="0 0 110 110" fill="none" xmlns="http://www.w3.org/2000/svg">
<circle cx="55" cy="55" r="55" fill="#0F1218"/>
<path d="M69.1504 38.0641C69.9362 38.187 70.5407 38.9788 70.851 39.7425C72.5335 43.5689 74.2159 47.3893 75.9004 51.1995C76.6863 52.9948 77.6132 54.9171 77.3734 56.922C77.2545 58.0645 76.783 59.1928 76.0334 60.1399C75.5942 60.696 75.0622 61.1232 74.4598 61.4617C73.8815 61.778 73.3133 62.2072 73.1863 62.8802C72.9868 65.008 73.1561 67.1841 73.0835 69.318C73.1359 70.7405 72.6745 72.0845 71.0525 71.9958C66.7747 71.9898 44.5115 72.0079 39.1538 71.9817C37.699 71.9757 37.2678 70.7043 37.3343 69.3945C37.2658 67.2023 37.4572 64.9838 37.2456 62.8077C37.1106 62.1548 36.5364 61.7438 35.9742 61.4315C34.4045 60.567 33.3225 58.9853 33.0626 57.2142C32.7885 55.4027 33.4615 53.6114 34.1688 51.9733C35.7989 48.2134 37.4491 44.4394 39.0994 40.6795C39.5729 39.5188 40.1754 38.0278 41.5818 38.0318C47.814 38.0661 62.8899 37.923 69.1222 38.062L69.1504 38.0681V38.0641ZM70.4319 69.461C70.5165 68.4536 70.4137 66.5736 70.4581 64.599C70.444 63.5149 70.6414 62.2233 69.7387 61.4456C69.3237 61.0809 68.7857 60.698 68.3545 60.6436C67.615 60.565 67.0709 61.3146 66.4886 61.6894C65.1305 62.6626 63.2083 62.7936 61.685 62.1165C60.879 61.8566 60.1939 60.9015 59.3637 60.8652C58.9406 60.8753 58.5537 61.2118 58.2112 61.4637C56.5146 62.7371 54.145 63.0112 52.1502 61.5564C51.2898 60.8975 50.6289 60.7302 49.7625 61.4758C48.3722 62.5739 46.3552 62.8419 44.705 62.1709C44.2375 61.9795 43.8103 61.7115 43.4154 61.3952C42.7908 60.8391 42.0654 60.3776 41.2493 60.9176C40.1653 61.5161 39.865 62.5921 39.9235 63.791C39.9537 65.8442 39.8872 67.9438 39.9618 69.455C41.9404 69.7734 55.5494 69.455 64.0969 69.5658C67.3127 69.5658 69.7065 69.5658 70.2687 69.5658C70.3472 69.5618 70.3996 69.5537 70.4258 69.4711V69.463L70.4319 69.461ZM59.2005 40.8729C58.9648 41.1187 58.9849 41.5862 59.0293 41.9428C59.4544 45.3662 59.8755 48.7473 60.2967 52.1244C60.343 52.4891 60.4337 52.9082 60.6815 53.156C60.9556 53.4402 61.3908 53.5006 61.7817 53.5127C62.8254 53.5228 63.8732 53.5127 64.9109 53.5167C65.5597 53.4925 66.0776 53.5812 66.3677 53.3132C66.6014 52.9767 66.271 52.3158 66.1844 51.8564C65.9184 50.865 65.6443 49.8676 65.3683 48.9186C64.6893 46.5974 64.0082 44.2983 63.311 41.9912C63.1881 41.5963 63.0088 41.1691 62.6945 40.9213C62.1383 40.4739 61.3323 40.5928 60.5284 40.5707C60.0911 40.5767 59.5491 40.5404 59.2187 40.8548L59.2005 40.8749V40.8729ZM43.9151 53.5127C44.8823 53.6013 46.4741 53.5288 47.6105 53.551C48.4971 53.5469 49.7323 53.6719 49.9096 52.5314C50.375 49.3397 51.0259 43.6737 51.3483 41.3202C51.3684 41.1429 51.4047 40.9172 51.318 40.7863C51.2354 40.6573 51.0239 40.6089 50.6571 40.5908C50.2199 40.5747 49.6154 40.5686 49.1358 40.5686C47.5763 40.5163 47.272 41.2094 46.8932 42.7105C46.7219 43.309 46.5527 43.8994 46.3814 44.5038C45.8092 46.5067 45.114 48.9488 44.5962 50.7703C44.2294 52.072 43.9413 53.0493 43.8627 53.3656C43.8506 53.4301 43.8486 53.4805 43.9091 53.5107L43.9171 53.5147L43.9151 53.5127ZM56.1378 40.8527C55.7006 40.4921 54.8764 40.5142 54.3727 40.7943C53.9012 41.0724 53.8307 41.6527 53.7702 42.1564C53.3834 45.4448 52.7124 51.0645 52.4988 52.9082C52.4464 53.1843 52.5693 53.4099 52.8655 53.4543C53.6413 53.5772 54.9591 53.4966 55.8537 53.5187C56.5408 53.4986 57.2138 53.6013 57.5966 53.2185C57.8344 52.9767 57.8263 52.5153 57.786 52.1566C57.3851 48.7493 56.9821 45.3441 56.573 41.9025C56.5267 41.5338 56.428 41.1026 56.162 40.8709L56.1398 40.8507L56.1378 40.8527ZM65.872 40.7177C65.4932 40.9938 65.8317 41.6567 65.9143 42.1101C66.7949 45.4831 67.8306 48.7614 68.828 52.0861C69.2048 53.5127 70.178 53.5772 71.5461 53.5389C72.0479 53.5369 72.5697 53.551 73.0654 53.5308C73.3455 53.5147 73.6618 53.4764 73.8351 53.287C74.0588 53.0311 73.8512 52.5536 73.7062 52.2352C72.0882 48.7997 70.4722 45.3562 68.8159 41.9489C68.556 41.4069 68.1892 40.8769 67.5989 40.7016C67.0306 40.5525 66.3677 40.5042 65.8902 40.7057L65.872 40.7177ZM36.5766 53.283C36.8849 53.6819 37.9891 53.5127 38.5473 53.5469C39.3593 53.5248 40.2741 53.6517 40.8725 53.2286C41.2473 52.9687 41.4105 52.4972 41.5415 52.0579C42.4643 48.9166 44.1367 43.2364 44.715 41.2457C44.8541 40.8608 44.713 40.6553 44.308 40.613C43.4899 40.488 42.2266 40.5827 41.7772 41.4975C40.0404 45.0398 38.4203 48.6506 36.7419 52.2151C36.6008 52.5274 36.3973 53.0029 36.5666 53.2649L36.5787 53.283H36.5766ZM43.9272 56.39C43.4114 57.0026 43.7982 58.1914 44.2053 58.8342C45.1744 60.4159 47.5763 60.5549 48.8175 59.221C49.43 58.5964 50.1191 57.0872 49.432 56.3518C49.0391 55.9991 48.1586 56.1221 47.5178 56.0999C46.863 56.0999 46.2081 56.0999 45.5512 56.0999C44.9447 56.1059 44.2717 56.0415 43.9473 56.3679L43.9252 56.39H43.9272ZM60.883 56.3719C60.5788 56.6923 60.6513 57.2162 60.7561 57.7501C61.2296 60.1439 64.4031 61.0426 65.9345 59.0538C66.4181 58.4211 67.0185 57.0509 66.412 56.3679C65.9909 55.983 65.058 56.1382 64.4535 56.1059C63.8027 56.1059 63.1458 56.1059 62.4909 56.1059C61.8804 56.1241 61.2719 56.0273 60.9032 56.3497L60.883 56.3699V56.3719ZM52.5693 56.386C52.253 56.7205 52.2892 57.2645 52.3981 57.7945C52.6378 58.9954 53.6312 59.9505 54.8422 60.1096C56.1841 60.293 57.5382 59.2392 57.913 57.9516C58.052 57.4821 58.191 56.8636 57.8848 56.4444C57.5362 55.9689 56.575 56.116 55.9726 56.0938C55.4104 56.0938 54.8482 56.0938 54.2861 56.0938C53.6513 56.116 52.9945 55.9991 52.5915 56.3659L52.5693 56.388V56.386ZM69.5795 56.3941C69.106 56.9421 69.511 58.0262 69.9463 58.5319C70.6656 59.4024 71.9854 59.6805 73.007 59.1969C73.5812 58.9369 74.0608 58.4715 74.355 57.9133C74.6955 57.2444 74.8688 56.4404 74.1817 56.2047C73.2689 56.0052 72.2876 56.1563 71.3567 56.112C70.7462 56.1281 69.9382 56.0253 69.6017 56.3739L69.5795 56.3961V56.3941ZM40.7496 56.3699C40.397 56.0415 39.8066 56.1341 39.2182 56.116C38.7206 56.116 38.2229 56.116 37.7272 56.116C37.1711 56.1402 36.2563 55.9991 35.9258 56.4344C35.7042 56.7185 35.7566 57.1517 35.8573 57.5003C36.1434 58.6045 37.304 59.481 38.4385 59.4326C39.5265 59.3843 40.5622 58.5783 40.8544 57.5305C40.9894 57.0892 41.0035 56.6278 40.7698 56.388L40.7496 56.3679V56.3699Z" fill="#2B71FF"/>
</svg>
