<svg width="110" height="110" viewBox="0 0 110 110" fill="none" xmlns="http://www.w3.org/2000/svg">
<circle cx="55" cy="55" r="55" fill="#0F1218"/>
<path d="M76.2882 46.2742C76.5786 61.346 70.4693 74.716 55.416 79.8784C54.8269 80.0706 54.2317 80.0215 53.6406 79.8252C47.785 77.7901 42.9499 74.3213 39.4422 69.5005C34.7074 63.0497 32.8605 54.9646 33.0159 47.0821C32.9995 45.2761 33.0016 43.4865 33.0016 41.6723C32.975 40.1731 33.2716 39.5288 34.8792 39.3734C42.596 38.59 47.8688 34.7715 53.8268 30.2739C54.5344 29.7646 55.2585 30.0305 55.8884 30.5418C56.4611 30.9672 57.0113 31.3988 57.5799 31.8262C60.5394 34.0842 63.6708 36.1602 67.1293 37.5571C69.4896 38.543 71.9767 39.0809 74.4944 39.3897C76.053 39.5595 76.325 40.4083 76.2861 41.8441C76.2943 43.1326 76.28 44.7668 76.2902 46.2333V46.2742H76.2882ZM74.1999 46.9246C74.1856 45.4561 74.1958 43.8853 74.1958 42.5395C74.2265 41.9852 73.9872 41.4514 73.3818 41.3634C70.727 41.0116 68.1725 40.3326 65.7447 39.2547C61.9343 37.596 58.5453 35.2194 55.2462 32.7487C54.9292 32.5257 54.5324 32.45 54.1949 32.6587C48.8894 36.694 43.001 40.4615 36.2556 41.2898C35.8875 41.3389 35.46 41.4391 35.2759 41.7602C35.143 41.975 35.1164 42.29 35.1123 42.5579C35.1082 44.2453 35.096 45.9244 35.1082 47.6098C34.8321 60.4644 41.1868 73.6116 54.0538 77.6654C54.6653 77.8228 55.2912 77.6919 55.8741 77.467C60.3144 75.845 64.09 73.2332 67.1334 69.5619C72.3223 63.3831 74.3226 54.7703 74.1999 46.9614V46.9205V46.9246Z" fill="#2B71FF"/>
<path d="M72.6332 47.0269C72.7539 55.1487 70.3282 63.7267 64.673 69.7501C62.3025 72.186 57.8744 75.2969 54.6019 75.9023C42.7331 72.5787 36.497 59.4991 36.6442 47.8388C36.6442 46.8141 36.6361 45.7976 36.632 44.7729C36.5911 43.601 36.9449 42.9465 38.1966 42.8422C41.5223 42.4413 44.6209 41.1855 47.5293 39.4961C48.959 38.6739 50.3457 37.7842 51.6915 36.8352C52.44 36.3238 53.1477 35.743 53.9065 35.2439C54.4526 34.8799 54.968 34.8655 55.5223 35.2235C59.0975 37.7126 62.6849 40.4185 66.843 41.842C68.3115 42.3697 69.8435 42.6438 71.3836 42.879C72.3326 43.0181 72.6516 43.7789 72.6251 44.642C72.6353 45.4377 72.6251 46.221 72.6332 46.986V47.0269ZM70.5102 47.6548C70.4795 46.9062 70.5879 46.1065 70.4448 45.3579C70.322 44.8957 69.8271 44.7607 69.3853 44.6911C64.2905 43.7871 59.8256 40.8439 55.6593 37.9048C55.3812 37.7126 55.0723 37.4487 54.741 37.4324C54.4997 37.414 54.2235 37.5715 54.0006 37.7167C53.1129 38.3057 52.2212 38.9234 51.3335 39.5186C47.834 41.885 44.0748 43.9385 39.8799 44.6952C39.2111 44.777 38.71 45.1084 38.7509 45.8426C38.2948 56.8361 42.8108 69.1528 53.7102 73.4111C54.246 73.6279 54.7942 73.7016 55.3485 73.5093C65.6608 69.6478 70.545 58.1614 70.5102 47.6977V47.6548Z" fill="#2B71FF"/>
<path d="M47.0548 50.4486C47.3595 50.1337 47.3677 49.6142 47.4598 49.1887C47.5845 48.4954 47.7502 47.8184 48.0345 47.1721C50.4684 41.4964 58.7948 41.523 61.2655 47.1271C61.6009 47.8552 61.8218 48.6304 61.9036 49.426C61.9302 49.6796 61.9507 49.9353 62.0284 50.1398C62.2329 50.7554 63.0265 50.7432 63.458 51.2258C63.8201 51.6145 63.9407 52.1421 63.9735 52.6719C64.0184 54.9483 63.998 57.237 63.9919 59.5195C64.0553 61.4871 63.4478 63.5487 62.1102 64.8966C59.9831 67.1116 57.631 67.1096 54.7799 67.0564C53.5772 67.038 52.3644 67.1137 51.1638 66.9828C48.5908 66.6515 46.3226 64.6655 45.576 62.1845C45.1036 60.4767 45.3367 58.6564 45.2774 56.9036C45.2774 55.8564 45.2836 54.8072 45.2877 53.76C45.304 52.9009 45.2099 51.8742 45.7928 51.2524C46.114 50.8741 46.6825 50.8025 47.0302 50.4773L47.0527 50.4548L47.0548 50.4486ZM47.605 53.0257C47.4066 53.218 47.4004 53.5452 47.3984 53.8172C47.3984 55.5639 47.38 57.3188 47.4086 59.0675C47.2307 61.9166 48.6379 64.508 51.5953 64.8639C53.6038 64.9661 55.6266 65.0009 57.633 64.8577C59.9299 64.5837 61.607 62.8268 61.8116 60.5135C61.9036 59.2659 61.8423 58.0183 61.8607 56.7686C61.8607 55.7889 61.8607 54.8031 61.8607 53.8254C61.8914 53.173 61.6275 52.8069 60.9362 52.8355C58.4471 52.8314 55.96 52.8355 53.4729 52.8355C51.7487 52.8355 50.0164 52.8334 48.2922 52.8355C48.059 52.8396 47.789 52.8662 47.6234 53.0073L47.6029 53.0257H47.605ZM49.685 50.463C49.82 50.6 50.0409 50.6348 50.2434 50.6429C51.2947 50.6511 52.3603 50.6429 53.4116 50.647C55.2523 50.647 57.091 50.647 58.9277 50.647C59.1629 50.6429 59.4349 50.6204 59.6027 50.4527C59.887 50.193 59.7704 49.5201 59.6824 49.0619C59.3756 47.5382 58.2916 46.2517 56.9029 45.5624C53.7899 43.8464 49.6625 46.2885 49.5255 49.7491C49.503 49.9844 49.5194 50.2952 49.6646 50.4445L49.685 50.465V50.463Z" fill="#2B71FF"/>
<path d="M53.4872 60.7221C53.4831 60.3765 53.4688 60.0247 53.3502 59.6934C53.1477 59.1002 52.4953 58.591 52.2948 57.9692C52.0453 57.2779 52.166 56.5088 52.6077 55.885C54.0333 53.8397 57.226 54.9606 57.1135 57.4129C57.1135 58.368 56.2607 58.9141 55.9375 59.7179C55.7575 60.3315 55.9007 61.031 55.7902 61.665C55.733 62.5077 54.8024 63.1724 54.0558 62.657C53.4586 62.2418 53.4913 61.4012 53.4893 60.759V60.7221H53.4872Z" fill="#2B71FF"/>
</svg>
